<?xml version="1.0" encoding="UTF-8" standalone="no"?>
<!-- Created with Inkscape (http://www.inkscape.org/) -->

<svg
   xmlns:dc="http://purl.org/dc/elements/1.1/"
   xmlns:cc="http://creativecommons.org/ns#"
   xmlns:rdf="http://www.w3.org/1999/02/22-rdf-syntax-ns#"
   xmlns:svg="http://www.w3.org/2000/svg"
   xmlns="http://www.w3.org/2000/svg"
   xmlns:sodipodi="http://sodipodi.sourceforge.net/DTD/sodipodi-0.dtd"
   xmlns:inkscape="http://www.inkscape.org/namespaces/inkscape"
   width="210mm"
   height="297mm"
   viewBox="0 0 210 297"
   version="1.1"
   id="svg8"
   inkscape:version="0.92.2 2405546, 2018-03-11"
   sodipodi:docname="icon.svg">
  <defs
     id="defs2" />
  <sodipodi:namedview
     id="base"
     pagecolor="#ffffff"
     bordercolor="#666666"
     borderopacity="1.0"
     inkscape:pageopacity="0.0"
     inkscape:pageshadow="2"
     inkscape:zoom="1.4"
     inkscape:cx="-154.28571"
     inkscape:cy="800.4061"
     inkscape:document-units="mm"
     inkscape:current-layer="layer1"
     showgrid="false"
     inkscape:window-width="1920"
     inkscape:window-height="1020"
     inkscape:window-x="0"
     inkscape:window-y="31"
     inkscape:window-maximized="1" />
  <metadata
     id="metadata5">
    <rdf:RDF>
      <cc:Work
         rdf:about="">
        <dc:format>image/svg+xml</dc:format>
        <dc:type
           rdf:resource="http://purl.org/dc/dcmitype/StillImage" />
        <dc:title></dc:title>
      </cc:Work>
    </rdf:RDF>
  </metadata>
  <g
     inkscape:label="Layer 1"
     inkscape:groupmode="layer"
     id="layer1">
    <rect
       style="opacity:1;fill:#404040;fill-opacity:0;stroke:none;stroke-width:1.26499999;stroke-miterlimit:35.59999847;stroke-dasharray:none;stroke-dashoffset:0;stroke-opacity:1"
       id="rect4518"
       width="75.217262"
       height="65.767853"
       x="-55.184525"
       y="29.95982"
       ry="0.04681167" />
    <rect
       style="opacity:1;fill:#404040;fill-opacity:0.99145298;stroke:none;stroke-width:1.26499987;stroke-miterlimit:35.59999847;stroke-dasharray:none;stroke-dashoffset:0;stroke-opacity:1"
       id="rect4520"
       width="98.418388"
       height="97.764877"
       x="-61.189945"
       y="25.503639"
       ry="0.065096788"
       inkscape:export-xdpi="150"
       inkscape:export-ydpi="150" />
    <path
       style="opacity:1;fill:#404040;fill-opacity:0;stroke:#ffffff;stroke-width:1.2650001;stroke-miterlimit:35.59999847;stroke-dasharray:none;stroke-dashoffset:0;stroke-opacity:1"
       d="m 33.216051,72.860121 c 0,1.407894 -10.068176,6.993528 -12.200012,7.745843 -10.176607,3.591281 -10.648469,3.782432 -27.8962616,3.782432 -22.1445614,0 -40.0962744,-5.161385 -40.0962744,-11.528275 1e-6,-6.36689 17.951714,-11.528274 40.0962744,-11.528274 16.9852416,0 16.0547325,-0.373184 29.5563376,3.485421 4.594092,1.312939 10.539936,6.559472 10.539936,8.042853 z"
       id="path4522"
       inkscape:connector-curvature="0"
       sodipodi:nodetypes="sssssss" />
    <path
       style="opacity:1;fill:#404040;fill-opacity:0;stroke:#ffffff;stroke-width:1.26500082;stroke-miterlimit:35.59999847;stroke-dasharray:none;stroke-dashoffset:0;stroke-opacity:1"
       id="path4531"
       sodipodi:type="arc"
       sodipodi:cx="-72.44976"
       sodipodi:cy="-58.41415"
       sodipodi:rx="16.836807"
       sodipodi:ry="11.358978"
       sodipodi:start="0"
       sodipodi:end="3.1362188"
       d="m -55.612953,-58.41415 a 16.836807,11.358978 0 0 1 -16.791568,11.358937 16.836807,11.358978 0 0 1 -16.881804,-11.297896 l 16.836565,-0.06104 z"
       transform="matrix(-0.00100949,-0.99999949,0.9999967,-0.0025676,0,0)"
       inkscape:transform-center-x="0.80130133"
       inkscape:transform-center-y="-0.42957265" />
    <path
       style="opacity:1;fill:#404040;fill-opacity:0;stroke:#ffffff;stroke-width:1.26499999;stroke-miterlimit:35.59999847;stroke-dasharray:none;stroke-dashoffset:0;stroke-opacity:1"
       id="path4540"
       sodipodi:type="arc"
       sodipodi:cx="16.562956"
       sodipodi:cy="71.468071"
       sodipodi:rx="4.1426778"
       sodipodi:ry="3.7417734"
       sodipodi:start="3.1282583"
       sodipodi:end="3.0839444"
       sodipodi:open="true"
       d="m 12.420646,71.517964 a 4.1426778,3.7417734 0 0 1 4.041185,-3.790551 4.1426778,3.7417734 0 0 1 4.241194,3.607885 4.1426778,3.7417734 0 0 1 -3.947215,3.87049 4.1426778,3.7417734 0 0 1 -4.32865,-3.52213" />
    <path
       style="opacity:1;fill:#404040;fill-opacity:0;stroke:#ffffff;stroke-width:1.26499999;stroke-miterlimit:35.59999847;stroke-dasharray:none;stroke-dashoffset:0;stroke-opacity:1"
       id="path4542"
       sodipodi:type="arc"
       sodipodi:cx="16.796362"
       sodipodi:cy="71.456367"
       sodipodi:rx="1.2027128"
       sodipodi:ry="1.0690781"
       sodipodi:start="3.1282583"
       sodipodi:end="3.0839444"
       sodipodi:open="true"
       d="m 15.593756,71.470623 a 1.2027128,1.0690781 0 0 1 1.173247,-1.083015 1.2027128,1.0690781 0 0 1 1.231314,1.030824 1.2027128,1.0690781 0 0 1 -1.145965,1.105855 1.2027128,1.0690781 0 0 1 -1.256705,-1.006323" />
    <path
       style="fill:none;fill-rule:evenodd;stroke:#ffffff;stroke-width:1.26499987;stroke-linecap:butt;stroke-linejoin:miter;stroke-miterlimit:4;stroke-dasharray:none;stroke-opacity:1"
       d="M -44.537557,68.528105 8.970313,67.459027"
       id="path4546"
       inkscape:connector-curvature="0" />
    <path
       style="fill:none;fill-rule:evenodd;stroke:#ffffff;stroke-width:1.26499987;stroke-linecap:butt;stroke-linejoin:miter;stroke-miterlimit:4;stroke-dasharray:none;stroke-opacity:1"
       d="M -46.652426,71.965006 10.457096,70.895928"
       id="path4546-3"
       inkscape:connector-curvature="0" />
    <path
       style="fill:none;fill-rule:evenodd;stroke:#ffffff;stroke-width:1.26499987;stroke-linecap:butt;stroke-linejoin:miter;stroke-miterlimit:4;stroke-dasharray:none;stroke-opacity:1"
       d="M -45.941704,75.480187 9.2722118,74.411109"
       id="path4546-6"
       inkscape:connector-curvature="0" />
    <path
       style="fill:none;fill-rule:evenodd;stroke:#ffffff;stroke-width:1.26499987;stroke-linecap:butt;stroke-linejoin:miter;stroke-miterlimit:4;stroke-dasharray:none;stroke-opacity:1"
       d="M -39.11489,79.713523 7.1907042,78.644445"
       id="path4546-7"
       inkscape:connector-curvature="0" />
    <path
       style="fill:none;fill-rule:evenodd;stroke:#ffffff;stroke-width:1.26499999;stroke-linecap:butt;stroke-linejoin:miter;stroke-miterlimit:4;stroke-dasharray:none;stroke-opacity:1"
       d="m 4.0798566,61.214719 c 0,0 6.3571634,6.298467 5.9871134,11.259013 C 9.6969187,77.434276 3.8896286,83.77248 3.8896286,83.77248"
       id="path4577"
       inkscape:connector-curvature="0" />
    <path
       style="fill:none;fill-rule:evenodd;stroke:#ffffff;stroke-width:1.5;stroke-linecap:butt;stroke-linejoin:miter;stroke-miterlimit:4;stroke-dasharray:none;stroke-opacity:1"
       d="m -55.5625,110.09077 19.950651,-0.0336 7.238154,3.47254 16.467445,7.90034 20.0074594,-11.43071 21.0029556,0.0914"
       id="path4598"
       inkscape:connector-curvature="0"
       sodipodi:nodetypes="cccccc" />
    <path
       style="fill:none;fill-rule:evenodd;stroke:#ffffff;stroke-width:1.5;stroke-linecap:butt;stroke-linejoin:miter;stroke-miterlimit:4;stroke-dasharray:none;stroke-opacity:1"
       d="m -55.184525,95.727676 19.950651,-0.0336 7.238154,3.47254 16.467444,7.900344 20.0074626,-11.430714 21.0029544,0.0914"
       id="path4598-5"
       inkscape:connector-curvature="0"
       sodipodi:nodetypes="cccccc" />
    <path
       style="fill:none;fill-rule:evenodd;stroke:#ffffff;stroke-width:1.5;stroke-linecap:butt;stroke-linejoin:miter;stroke-miterlimit:4;stroke-dasharray:none;stroke-opacity:1"
       d="M 30.217695,53.374226 10.267064,53.330164 3.0424826,49.829475 -13.394083,41.865088 -33.44589,53.217833 -54.44833,53.044676"
       id="path4598-3"
       inkscape:connector-curvature="0"
       sodipodi:nodetypes="cccccc" />
    <path
       style="fill:none;fill-rule:evenodd;stroke:#ffffff;stroke-width:1.5;stroke-linecap:butt;stroke-linejoin:miter;stroke-miterlimit:4;stroke-dasharray:none;stroke-opacity:1"
       d="M 29.295098,40.109382 9.344467,40.06532 2.119884,36.564632 -14.316681,28.600244 -34.368489,39.952989 -55.370929,39.779832"
       id="path4598-3-5"
       inkscape:connector-curvature="0"
       sodipodi:nodetypes="cccccc" />
  </g>
</svg>
