<?xml version="1.0" encoding="UTF-8" standalone="no"?>
<!-- Created with Inkscape (http://www.inkscape.org/) -->

<svg
   xmlns:dc="http://purl.org/dc/elements/1.1/"
   xmlns:cc="http://creativecommons.org/ns#"
   xmlns:rdf="http://www.w3.org/1999/02/22-rdf-syntax-ns#"
   xmlns:svg="http://www.w3.org/2000/svg"
   xmlns="http://www.w3.org/2000/svg"
   xmlns:sodipodi="http://sodipodi.sourceforge.net/DTD/sodipodi-0.dtd"
   xmlns:inkscape="http://www.inkscape.org/namespaces/inkscape"
   width="200mm"
   height="200mm"
   viewBox="0 0 200 200"
   version="1.1"
   id="svg8"
   inkscape:version="0.92.4 (unknown)"
   sodipodi:docname="icon.svg">
  <defs
     id="defs2" />
  <sodipodi:namedview
     id="base"
     pagecolor="#ffffff"
     bordercolor="#666666"
     borderopacity="1.0"
     inkscape:pageopacity="0.0"
     inkscape:pageshadow="2"
     inkscape:zoom="0.49497475"
     inkscape:cx="528.99325"
     inkscape:cy="212.4664"
     inkscape:document-units="mm"
     inkscape:current-layer="layer1"
     showgrid="false"
     inkscape:window-width="1920"
     inkscape:window-height="1015"
     inkscape:window-x="0"
     inkscape:window-y="0"
     inkscape:window-maximized="1" />
  <metadata
     id="metadata5">
    <rdf:RDF>
      <cc:Work
         rdf:about="">
        <dc:format>image/svg+xml</dc:format>
        <dc:type
           rdf:resource="http://purl.org/dc/dcmitype/StillImage" />
        <dc:title></dc:title>
      </cc:Work>
    </rdf:RDF>
  </metadata>
  <g
     inkscape:label="Layer 1"
     inkscape:groupmode="layer"
     id="layer1"
     transform="translate(0,-97)">
    <rect
       style="fill:#164450;stroke-width:4.9984169;stroke-linecap:round;stroke-linejoin:round;stroke-miterlimit:4;stroke-dasharray:none;fill-opacity:1"
       id="rect4534"
       width="200"
       height="200"
       x="-8.437695e-15"
       y="97" />
    <path
       style="opacity:0.1;fill:#ffffff;fill-opacity:1;stroke:none;stroke-width:1.55399919;stroke-linecap:round;stroke-linejoin:round;stroke-miterlimit:4;stroke-dasharray:none;stroke-opacity:1"
       d="m 0,202.29167 c 66.447403,-11.79286 140.22002,-13.12038 200,0 V 297 H 0 Z"
       id="rect822"
       inkscape:connector-curvature="0"
       sodipodi:nodetypes="ccccc" />
    <path
       style="color:#000000;font-style:normal;font-variant:normal;font-weight:normal;font-stretch:normal;font-size:medium;line-height:normal;font-family:sans-serif;font-variant-ligatures:normal;font-variant-position:normal;font-variant-caps:normal;font-variant-numeric:normal;font-variant-alternates:normal;font-feature-settings:normal;text-indent:0;text-align:start;text-decoration:none;text-decoration-line:none;text-decoration-style:solid;text-decoration-color:#000000;letter-spacing:normal;word-spacing:normal;text-transform:none;writing-mode:lr-tb;direction:ltr;text-orientation:mixed;dominant-baseline:auto;baseline-shift:baseline;text-anchor:start;white-space:normal;shape-padding:0;clip-rule:nonzero;display:inline;overflow:visible;visibility:visible;opacity:1;isolation:auto;mix-blend-mode:normal;color-interpolation:sRGB;color-interpolation-filters:linearRGB;solid-color:#000000;solid-opacity:1;vector-effect:none;fill:#ff653a;fill-opacity:1;fill-rule:nonzero;stroke:none;stroke-width:7.55905522;stroke-linecap:round;stroke-linejoin:round;stroke-miterlimit:4;stroke-dasharray:none;stroke-dashoffset:0;stroke-opacity:1;color-rendering:auto;image-rendering:auto;shape-rendering:auto;text-rendering:auto;enable-background:accumulate"
       d="M 595.65234 100.60742 A 28.346457 28.346457 0 0 0 573.08789 111.85742 L 435.40625 111.85742 A 17.790271 17.790271 0 0 0 435.25195 111.85742 C 394.59127 112.21232 361.9597 125.63863 340.37109 148.88477 C 318.78249 172.13086 308.86279 203.7774 308.2168 237.89648 A 17.790271 17.790271 0 0 0 308.2168 238.22852 L 308.2168 295.4082 L 151.04883 295.4082 A 17.790271 17.790271 0 0 0 133.25781 313.19922 L 133.25781 415.41602 A 17.790271 17.790271 0 0 0 151.04883 433.20703 L 237.43555 433.20703 A 28.346457 28.346457 0 0 0 259.77539 444.11914 A 28.346457 28.346457 0 0 0 288.12109 415.77344 A 28.346457 28.346457 0 0 0 259.77539 387.42773 A 28.346457 28.346457 0 0 0 238.00781 397.625 L 168.83203 397.625 L 168.83203 330.98828 L 308.2168 330.98828 L 308.2168 626.26562 A 17.790271 17.790271 0 0 0 326.00586 644.05469 L 407.74609 644.05469 A 28.346457 28.346457 0 0 0 426.73047 651.39453 A 28.346457 28.346457 0 0 0 455.07617 623.04883 A 28.346457 28.346457 0 0 0 445.80664 602.12695 L 445.80664 433.20703 L 600.80469 433.20703 A 17.790271 17.790271 0 0 0 618.5957 415.41602 L 618.5957 313.19922 A 17.790271 17.790271 0 0 0 600.80469 295.4082 L 481.25977 295.4082 A 28.346457 28.346457 0 0 0 457.50195 282.50781 A 28.346457 28.346457 0 0 0 433.76367 295.4082 L 343.78906 295.4082 L 343.78906 238.56836 C 344.31392 210.84719 352.11165 188.51557 366.4375 173.08984 C 380.76336 157.66408 402.2411 147.72232 435.56055 147.43164 L 574.20117 147.43164 A 28.346457 28.346457 0 0 0 595.65234 157.30078 A 28.346457 28.346457 0 0 0 624 128.95312 A 28.346457 28.346457 0 0 0 595.65234 100.60742 z M 343.78906 330.98828 L 437.58008 330.98828 A 28.346457 28.346457 0 0 0 457.50195 339.20117 A 28.346457 28.346457 0 0 0 477.4375 330.98828 L 583.01367 330.98828 L 583.01367 397.625 L 428.01758 397.625 A 17.790271 17.790271 0 0 0 410.22656 415.41602 L 410.22656 600.04492 A 28.346457 28.346457 0 0 0 402.45703 608.47461 L 343.78906 608.47461 L 343.78906 330.98828 z "
       transform="matrix(0.26458333,0,0,0.26458333,0,97)"
       id="path21" />
  </g>
</svg>
